<svg width="959" height="704" viewBox="0 0 959 704" fill="none" xmlns="http://www.w3.org/2000/svg">
  <path d="M48.5 49.5H153.5L271.5 337.5L364.5 561.5L290.5 640.5L48.5 49.5Z" fill="#000000"/>
  <path d="M260.5 49.5H365.5L483.5 337.5L576.5 561.5L502.5 640.5L260.5 49.5Z" fill="#000000"/>
  <path d="M435.5 49.5H702.5C854.955 49.5 958.5 177.045 958.5 329.5V341.5C958.5 493.955 854.955 621.5 702.5 621.5H435.5L359.5 49.5Z" fill="#000000"/>
  <path d="M510.5 79.5H687.5C812.363 79.5 913.5 180.637 913.5 305.5V318.5C913.5 443.363 812.363 544.5 687.5 544.5H510.5L443.5 79.5Z" fill="#000000"/>
  <path d="M530.5 199.5H657.5C746.269 199.5 818.5 271.731 818.5 360.5V367.5C818.5 456.269 746.269 528.5 657.5 528.5H530.5L481.5 199.5Z" fill="#000000"/>
</svg>
