<?xml version="1.0" encoding="UTF-8"?>
<!DOCTYPE svg PUBLIC "-//W3C//DTD SVG 1.1//EN" "http://www.w3.org/Graphics/SVG/1.1/DTD/svg11.dtd">
<svg xmlns="http://www.w3.org/2000/svg" version="1.1" width="1171px" height="938px" style="shape-rendering:geometricPrecision; text-rendering:geometricPrecision; image-rendering:optimizeQuality; fill-rule:evenodd; clip-rule:evenodd" xmlns:xlink="http://www.w3.org/1999/xlink">
<g><path style="opacity:1" fill="#0c002c" d="M 172.5,65.5 C 172.565,65.9382 172.399,66.2716 172,66.5C 170.5,63.6667 168.333,61.5 165.5,60C 127.664,59.8326 89.9978,59.3326 52.5,58.5C 90.0954,57.3402 127.762,57.1736 165.5,58C 168.739,59.7364 171.073,62.2364 172.5,65.5 Z"/></g>
<g><path style="opacity:1" fill="#0c002c" d="M 410.5,58.5 C 366.833,59.8333 323.167,59.8333 279.5,58.5C 323.167,57.1667 366.833,57.1667 410.5,58.5 Z"/></g>
<g><path style="opacity:1" fill="#0c002b" d="M 824.5,61.5 C 824.565,61.9382 824.399,62.2716 824,62.5C 823.097,61.2986 821.931,60.4652 820.5,60C 718.167,59.3333 615.833,59.3333 513.5,60C 511.354,62.3569 511.021,64.8569 512.5,67.5C 512.768,69.099 512.434,70.4324 511.5,71.5C 509.66,67.5155 509.493,63.5155 511,59.5C 511.75,58.8742 512.584,58.3742 513.5,58C 615.833,57.3333 718.167,57.3333 820.5,58C 822.324,58.66 823.657,59.8267 824.5,61.5 Z"/></g>
<g><path style="opacity:1" fill="#01000c" d="M 279.5,58.5 C 323.167,59.8333 366.833,59.8333 410.5,58.5C 413.833,59.8333 416.167,62.1667 417.5,65.5C 414.183,64.9181 411.183,63.5847 408.5,61.5C 364.916,62.2095 321.249,62.5428 277.5,62.5C 277.784,64.4147 277.451,66.0813 276.5,67.5C 275.419,64.6685 275.585,62.0018 277,59.5C 277.671,58.7476 278.504,58.4142 279.5,58.5 Z"/></g>
<g><path style="opacity:1" fill="#02000e" d="M 824.5,61.5 C 831.119,62.2571 837.785,62.7571 844.5,63C 845.5,64 846.5,65 847.5,66C 852.019,66.1753 856.353,66.6753 860.5,67.5C 855.969,67.9976 851.469,68.9976 847,70.5C 845.387,68.2232 843.22,66.7232 840.5,66C 835.913,65.2009 831.413,65.3676 827,66.5C 824.072,65.5588 821.739,63.8922 820,61.5C 718.507,62.8323 617.007,62.8323 515.5,61.5C 514.263,61.5565 513.263,62.0565 512.5,63C 512.966,64.2988 512.966,65.7988 512.5,67.5C 511.021,64.8569 511.354,62.3569 513.5,60C 615.833,59.3333 718.167,59.3333 820.5,60C 821.931,60.4652 823.097,61.2986 824,62.5C 824.399,62.2716 824.565,61.9382 824.5,61.5 Z"/></g>
<g><path style="opacity:1" fill="#110560" d="M 49.5,61.5 C 50.8333,63.1667 50.8333,64.8333 49.5,66.5C 48.9035,64.602 48.9035,62.9354 49.5,61.5 Z"/></g>
<g><path style="opacity:1" fill="#000001" d="M 52.5,58.5 C 89.9978,59.3326 127.664,59.8326 165.5,60C 168.333,61.5 170.5,63.6667 172,66.5C 172.399,66.2716 172.565,65.9382 172.5,65.5C 173.117,65.6107 173.617,65.944 174,66.5C 237.9,240.876 302.567,414.876 368,588.5C 375.926,610.03 383.592,631.697 391,653.5C 392.333,655.5 393.667,657.5 395,659.5C 406.659,695.149 419.493,730.315 433.5,765C 431.86,770.971 428.36,775.471 423,778.5C 398.9,806.272 374.4,833.772 349.5,861C 348.5,861.667 347.5,861.667 346.5,861C 344.877,858.92 343.377,856.754 342,854.5C 338.197,844.633 334.697,834.633 331.5,824.5C 332.097,824.265 332.43,823.765 332.5,823C 329.685,816.993 327.685,810.993 326.5,805C 325.563,804.308 324.897,804.475 324.5,805.5C 323.211,802.24 321.878,798.906 320.5,795.5C 321.244,791.736 320.244,788.236 317.5,785C 318.198,784.029 318.198,782.863 317.5,781.5C 317.253,780.287 316.586,779.62 315.5,779.5C 308.261,762.461 301.595,745.128 295.5,727.5C 296.043,727.44 296.376,727.107 296.5,726.5C 294.19,719.869 291.523,713.536 288.5,707.5C 287.833,707.5 287.5,707.167 287.5,706.5C 288.043,706.44 288.376,706.107 288.5,705.5C 287.906,702.043 286.573,699.043 284.5,696.5C 275.556,675.685 267.556,654.352 260.5,632.5C 260.993,630.743 261.327,628.909 261.5,627C 260.692,626.692 260.025,626.192 259.5,625.5C 256.456,619.757 253.789,614.09 251.5,608.5C 250.833,608.5 250.5,608.167 250.5,607.5C 251.403,604.908 250.736,602.574 248.5,600.5C 229.879,551.239 211.213,501.906 192.5,452.5C 193.043,452.44 193.376,452.107 193.5,451.5C 193.086,449.081 192.086,447.081 190.5,445.5C 187.706,437.791 184.706,430.125 181.5,422.5C 182.097,422.265 182.43,421.765 182.5,421C 182.302,418.815 181.302,417.315 179.5,416.5C 172.045,395.471 164.378,374.471 156.5,353.5C 157.471,352.038 157.138,350.705 155.5,349.5C 148.592,333.451 142.258,317.117 136.5,300.5C 136.938,300.565 137.272,300.399 137.5,300C 136.342,296.527 135.176,293.027 134,289.5C 133.502,287.456 132.335,286.122 130.5,285.5C 125.833,272.5 121.167,259.5 116.5,246.5C 117.061,243.96 116.395,241.46 114.5,239C 115.172,237.421 114.505,236.254 112.5,235.5C 105.387,218.084 98.7201,200.417 92.5,182.5C 93.1081,180.316 92.4414,178.316 90.5,176.5C 86.2645,167.137 82.5978,157.471 79.5,147.5C 80.1081,145.316 79.4414,143.316 77.5,141.5C 76.6618,141.158 76.3284,140.492 76.5,139.5C 77.0431,139.44 77.3764,139.107 77.5,138.5C 75.5048,132.787 73.1715,127.453 70.5,122.5C 62.7327,104.208 55.7327,85.5408 49.5,66.5C 50.8333,64.8333 50.8333,63.1667 49.5,61.5C 49.5,59.5 50.5,58.5 52.5,58.5 Z"/></g>
<g><path style="opacity:1" fill="#000001" d="M 417.5,65.5 C 422.315,74.405 426.481,83.7383 430,93.5C 450.33,149.988 471.164,206.321 492.5,262.5C 491.285,263.779 491.618,264.779 493.5,265.5C 518.959,334.539 544.625,403.539 570.5,472.5C 569.529,473.962 569.862,475.295 571.5,476.5C 600.269,554.128 629.269,631.795 658.5,709.5C 657.609,710.261 656.942,711.261 656.5,712.5C 659.398,716.353 660.732,720.52 660.5,725C 661.719,726.795 662.719,726.628 663.5,724.5C 666.118,729.413 669.452,733.746 673.5,737.5C 672.427,738.251 672.26,739.251 673,740.5C 708.931,739.836 744.764,739.17 780.5,738.5C 784.34,737.915 788.007,736.749 791.5,735C 798.918,734.85 805.584,734.35 811.5,733.5C 813.223,731.782 815.223,730.449 817.5,729.5C 822.316,730.65 827.316,730.816 832.5,730C 834.116,729.385 835.449,728.385 836.5,727C 840.025,726.821 843.359,726.321 846.5,725.5C 853.831,722.667 861.164,719.834 868.5,717C 870.596,715.234 872.929,713.901 875.5,713C 874.906,712.536 874.239,712.369 873.5,712.5C 874.209,711.596 875.209,711.263 876.5,711.5C 876.56,712.043 876.893,712.376 877.5,712.5C 881.58,710.609 884.913,708.609 887.5,706.5C 887.833,705.5 888.5,704.833 889.5,704.5C 890.097,705.139 890.93,705.472 892,705.5C 895.263,702.621 899.096,700.954 903.5,700.5C 903.259,697.001 904.092,696.668 906,699.5C 907.932,696.116 910.432,693.282 913.5,691C 913.272,690.601 912.938,690.435 912.5,690.5C 912.842,689.662 913.508,689.328 914.5,689.5C 921.346,685.464 927.679,680.13 933.5,673.5C 933.5,672.833 933.833,672.5 934.5,672.5C 941.068,668.646 947.068,663.313 952.5,656.5C 953.833,654.5 955.5,652.833 957.5,651.5C 959.463,650.04 961.296,648.373 963,646.5C 964.297,647.784 965.464,647.617 966.5,646C 966.167,645.667 965.833,645.333 965.5,645C 968.407,643.377 969.407,641.21 968.5,638.5C 968.5,637.833 968.833,637.5 969.5,637.5C 970.209,638.404 971.209,638.737 972.5,638.5C 972.343,637.127 972.51,635.793 973,634.5C 975.851,632.14 977.684,629.14 978.5,625.5C 979.117,625.611 979.617,625.944 980,626.5C 981.569,625.062 983.069,623.562 984.5,622C 983.353,619.915 984.02,618.415 986.5,617.5C 987.244,616.009 987.91,614.509 988.5,613C 988.272,612.601 987.938,612.435 987.5,612.5C 987.5,611.833 987.833,611.5 988.5,611.5C 990.624,609.49 992.624,607.323 994.5,605C 994.116,604.049 993.783,603.216 993.5,602.5C 993.427,600.973 994.094,599.973 995.5,599.5C 999.183,596.969 1001.52,593.469 1002.5,589C 1002.27,588.601 1001.94,588.435 1001.5,588.5C 1001.5,587.833 1001.83,587.5 1002.5,587.5C 1004.68,586.177 1005.35,584.51 1004.5,582.5C 1004.5,581.833 1004.83,581.5 1005.5,581.5C 1007.98,579.915 1008.65,577.915 1007.5,575.5C 1007.5,574.833 1007.83,574.5 1008.5,574.5C 1010.14,573.295 1010.47,571.962 1009.5,570.5C 1031.02,520.285 1037.35,468.285 1028.5,414.5C 1029.15,413.726 1029.48,412.726 1029.5,411.5C 1028.91,406.162 1027.57,401.162 1025.5,396.5C 1022.16,384.817 1018.66,373.151 1015,361.5C 1007.74,347.32 1000.74,332.987 994,318.5C 991.283,315.29 988.783,311.956 986.5,308.5C 984.892,305.2 983.225,301.867 981.5,298.5C 981.043,297.702 980.376,297.369 979.5,297.5C 975.53,292.524 971.53,287.524 967.5,282.5C 966.213,280.195 964.88,277.862 963.5,275.5C 962.583,274.873 961.583,274.539 960.5,274.5C 954.833,268.167 948.833,262.167 942.5,256.5C 941.415,254.413 939.749,253.08 937.5,252.5C 935.012,250.745 932.678,248.745 930.5,246.5C 931.738,246.19 931.738,245.69 930.5,245C 927.935,242.92 925.268,241.087 922.5,239.5C 916.995,235.581 911.329,231.914 905.5,228.5C 905.622,227.293 904.622,226.626 902.5,226.5C 902.461,225.417 902.127,224.417 901.5,223.5C 897.965,223.031 894.965,221.531 892.5,219C 890.934,218.235 889.601,218.402 888.5,219.5C 887.5,219.167 886.833,218.5 886.5,217.5C 886.5,216.5 886.5,215.5 886.5,214.5C 884.901,214.232 883.568,214.566 882.5,215.5C 881.508,215.672 880.842,215.338 880.5,214.5C 881.776,213.614 881.776,212.614 880.5,211.5C 878.684,210.265 877.017,210.265 875.5,211.5C 870.305,208.816 864.971,206.316 859.5,204C 852.603,201.723 845.603,199.723 838.5,198C 834.347,195.085 829.68,193.751 824.5,194C 822.275,193.439 820.275,192.439 818.5,191C 810.31,191.54 802.643,189.873 795.5,186C 723.812,185.179 652.145,185.346 580.5,186.5C 573.285,185.85 565.951,185.017 558.5,184C 553.62,181.859 551.454,178.359 552,173.5C 551.023,172.226 550.189,172.226 549.5,173.5C 537.841,142.192 526.174,110.859 514.5,79.5C 515.108,77.3159 514.441,75.3159 512.5,73.5C 511.662,73.1583 511.328,72.4916 511.5,71.5C 512.434,70.4324 512.768,69.099 512.5,67.5C 512.966,65.7988 512.966,64.2988 512.5,63C 513.263,62.0565 514.263,61.5565 515.5,61.5C 617.007,62.8323 718.507,62.8323 820,61.5C 821.739,63.8922 824.072,65.5588 827,66.5C 831.413,65.3676 835.913,65.2009 840.5,66C 843.22,66.7232 845.387,68.2232 847,70.5C 851.469,68.9976 855.969,67.9976 860.5,67.5C 865.246,69.8964 870.246,71.2297 875.5,71.5C 860.848,71.6688 860.848,72.1688 875.5,73C 878.884,75.9372 882.884,77.2705 887.5,77C 892.911,80.6963 898.578,82.5297 904.5,82.5C 905.492,82.3284 906.158,82.6618 906.5,83.5C 905.263,84.7434 905.596,85.7434 907.5,86.5C 910.231,85.518 912.565,85.518 914.5,86.5C 916.698,86.8751 918.698,87.5418 920.5,88.5C 919.448,88.3505 918.448,88.5172 917.5,89C 921.846,88.9194 925.013,90.7527 927,94.5C 929.584,93.1386 931.584,93.8052 933,96.5C 933.951,96.1164 934.784,95.7831 935.5,95.5C 936.492,95.3284 937.158,95.6618 937.5,96.5C 936.115,97.3023 936.282,97.9689 938,98.5C 939.766,99.2335 941.599,99.5668 943.5,99.5C 943.414,100.496 943.748,101.329 944.5,102C 948.491,103.078 952.324,104.578 956,106.5C 956.765,106.43 957.265,106.097 957.5,105.5C 958.492,105.328 959.158,105.662 959.5,106.5C 958.957,106.56 958.624,106.893 958.5,107.5C 961.201,109.703 964.034,111.703 967,113.5C 967.399,113.272 967.565,112.938 967.5,112.5C 968.492,112.328 969.158,112.662 969.5,113.5C 968.957,113.56 968.624,113.893 968.5,114.5C 972.208,116.772 975.875,118.939 979.5,121C 981.126,123.565 983.459,125.065 986.5,125.5C 987.446,126.931 988.612,128.264 990,129.5C 993.737,129.229 995.737,131.229 996,135.5C 997.603,135.129 999.103,134.795 1000.5,134.5C 1001.49,134.328 1002.16,134.662 1002.5,135.5C 1002.06,135.435 1001.73,135.601 1001.5,136C 1005.28,138.149 1008.44,140.982 1011,144.5C 1011.38,143.944 1011.88,143.611 1012.5,143.5C 1015.71,148.353 1019.37,152.186 1023.5,155C 1025.33,155.273 1026.83,156.107 1028,157.5C 1028.4,157.272 1028.57,156.938 1028.5,156.5C 1029.49,156.328 1030.16,156.662 1030.5,157.5C 1029.96,157.56 1029.62,157.893 1029.5,158.5C 1032,161.858 1034.84,164.191 1038,165.5C 1038.71,169.772 1040.88,171.105 1044.5,169.5C 1049.6,173.651 1054.26,178.317 1058.5,183.5C 1057.96,183.56 1057.62,183.893 1057.5,184.5C 1059.53,187.029 1061.36,189.696 1063,192.5C 1063.38,191.944 1063.88,191.611 1064.5,191.5C 1068.31,195.122 1071.64,199.122 1074.5,203.5C 1074.2,204.15 1073.86,204.817 1073.5,205.5C 1076.66,206.324 1078.33,208.324 1078.5,211.5C 1079.55,211.351 1080.55,211.517 1081.5,212C 1082.73,213.667 1084.07,215.167 1085.5,216.5C 1087.5,217.833 1089.17,219.5 1090.5,221.5C 1090.43,223.027 1091.09,224.027 1092.5,224.5C 1093.97,225.436 1094.97,226.77 1095.5,228.5C 1094.62,228.369 1093.96,228.702 1093.5,229.5C 1096.58,231.651 1098.08,234.651 1098,238.5C 1099.01,239.337 1100.18,239.67 1101.5,239.5C 1101.34,241.527 1101.5,243.527 1102,245.5C 1102.33,245.167 1102.67,244.833 1103,244.5C 1105.84,246.839 1108.34,249.506 1110.5,252.5C 1111.11,252.376 1111.44,252.043 1111.5,251.5C 1116.04,257.912 1119.54,264.912 1122,272.5C 1143.73,312.53 1157.57,355.197 1163.5,400.5C 1162.13,403.012 1162.47,405.345 1164.5,407.5C 1167.42,423.147 1168.76,438.981 1168.5,455C 1167.59,474.905 1166.26,494.738 1164.5,514.5C 1162.78,516.658 1161.95,519.325 1162,522.5C 1161.19,526.027 1161.36,529.36 1162.5,532.5C 1161.22,536.774 1160.22,541.108 1159.5,545.5C 1158.35,545.791 1157.68,546.624 1157.5,548C 1157.53,549.07 1157.86,549.903 1158.5,550.5C 1150.73,584.308 1138.9,616.641 1123,647.5C 1114.33,662.167 1105.67,676.833 1097,691.5C 1095.33,693.833 1093.33,695.833 1091,697.5C 1086.33,704.167 1081.67,710.833 1077,717.5C 1067.91,727.417 1058.74,737.084 1049.5,746.5C 1048.79,745.596 1047.79,745.263 1046.5,745.5C 1046.5,746.5 1046.5,747.5 1046.5,748.5C 1043.75,748.402 1043.09,749.402 1044.5,751.5C 1035.63,759.773 1026.96,768.273 1018.5,777C 1014.81,779.178 1011.14,781.345 1007.5,783.5C 1006.83,782.733 1005.99,782.066 1005,781.5C 1003.14,785.746 999.975,788.08 995.5,788.5C 995.263,789.791 995.596,790.791 996.5,791.5C 985.884,799.816 974.551,807.15 962.5,813.5C 960.044,813.289 957.544,813.289 955,813.5C 954.383,814.449 954.549,815.282 955.5,816C 950.837,817.895 946.504,820.228 942.5,823C 942.728,823.399 943.062,823.565 943.5,823.5C 938.721,827.223 933.388,829.889 927.5,831.5C 925.673,830.418 923.673,830.418 921.5,831.5C 919.5,832.5 917.5,833.5 915.5,834.5C 914.873,835.417 914.539,836.417 914.5,837.5C 913.486,838.674 912.153,839.34 910.5,839.5C 907.893,838.198 905.227,838.364 902.5,840C 903.094,840.464 903.761,840.631 904.5,840.5C 898.792,843.465 892.792,845.965 886.5,848C 880.824,848.394 875.49,849.894 870.5,852.5C 866.544,851.293 862.544,851.626 858.5,853.5C 858.624,854.107 858.957,854.44 859.5,854.5C 857.852,855.927 855.852,856.76 853.5,857C 849.179,857.499 844.846,857.666 840.5,857.5C 838.393,856.532 836.059,856.198 833.5,856.5C 833.5,857.5 833.5,858.5 833.5,859.5C 833.082,860.222 832.416,860.722 831.5,861C 826.167,861.333 820.833,861.667 815.5,862C 811.981,862.395 808.648,863.395 805.5,865C 792.996,865.782 780.496,866.616 768,867.5C 708.962,867.397 649.962,867.397 591,867.5C 585.444,867.046 579.944,866.213 574.5,865C 571.781,861.842 569.614,858.342 568,854.5C 559.16,829.791 550.327,805.124 541.5,780.5C 542.043,780.44 542.376,780.107 542.5,779.5C 541.305,776.276 539.971,773.109 538.5,770C 539.71,768.132 539.21,766.632 537,765.5C 534.303,758.076 531.469,751.409 528.5,745.5C 523.271,732.688 518.271,719.688 513.5,706.5C 514.043,706.44 514.376,706.107 514.5,705.5C 513.735,703.705 513.068,701.872 512.5,700C 512.164,698.97 511.497,698.47 510.5,698.5C 499.129,668.147 487.795,637.814 476.5,607.5C 477.108,605.316 476.441,603.316 474.5,601.5C 473.662,601.158 473.328,600.492 473.5,599.5C 474.471,598.038 474.138,596.705 472.5,595.5C 467.833,583.167 463.167,570.833 458.5,558.5C 458.938,558.565 459.272,558.399 459.5,558C 458.868,555.585 457.868,553.418 456.5,551.5C 455.833,551.5 455.5,551.167 455.5,550.5C 456.239,550.631 456.906,550.464 457.5,550C 456.167,549 456.167,548 457.5,547C 456.692,546.692 456.025,546.192 455.5,545.5C 454.748,541.905 453.414,538.572 451.5,535.5C 451.709,534.914 452.043,534.414 452.5,534C 450.807,532.75 449.473,531.25 448.5,529.5C 445.526,523.347 442.692,517.014 440,510.5C 438.356,505.923 437.022,501.256 436,496.5C 426.135,472.734 416.968,448.734 408.5,424.5C 409.097,424.265 409.43,423.765 409.5,423C 409,421.5 408.5,420 408,418.5C 406.058,414.808 404.224,411.142 402.5,407.5C 364.393,307.517 327.059,207.184 290.5,106.5C 291.097,106.265 291.43,105.765 291.5,105C 290.684,101.192 289.017,98.0258 286.5,95.5C 282.215,86.6547 278.882,77.3213 276.5,67.5C 277.451,66.0813 277.784,64.4147 277.5,62.5C 321.249,62.5428 364.916,62.2095 408.5,61.5C 411.183,63.5847 414.183,64.9181 417.5,65.5 Z"/></g>
<g><path style="opacity:1" fill="#0d0539" d="M 512.5,73.5 C 514.441,75.3159 515.108,77.3159 514.5,79.5C 513.27,77.7028 512.604,75.7028 512.5,73.5 Z"/></g>
<g><path style="opacity:1" fill="#0b063a" d="M 875.5,71.5 C 879.562,74.5228 884.229,76.0228 889.5,76C 892.884,78.9372 896.884,80.2705 901.5,80C 902.942,80.3768 903.942,81.2101 904.5,82.5C 898.578,82.5297 892.911,80.6963 887.5,77C 882.884,77.2705 878.884,75.9372 875.5,73C 860.848,72.1688 860.848,71.6688 875.5,71.5 Z"/></g>
<g><path style="opacity:1" fill="#0d0125" d="M 906.5,83.5 C 909.831,83.0181 912.497,84.0181 914.5,86.5C 912.565,85.518 910.231,85.518 907.5,86.5C 905.596,85.7434 905.263,84.7434 906.5,83.5 Z"/></g>
<g><path style="opacity:1" fill="#0f0335" d="M 920.5,88.5 C 921.873,88.3433 923.207,88.51 924.5,89C 928.173,91.3117 931.84,93.4783 935.5,95.5C 934.784,95.7831 933.951,96.1164 933,96.5C 931.584,93.8052 929.584,93.1386 927,94.5C 925.013,90.7527 921.846,88.9194 917.5,89C 918.448,88.5172 919.448,88.3505 920.5,88.5 Z"/></g>
<g><path style="opacity:1" fill="#0d022d" d="M 937.5,96.5 C 940.393,96.0311 942.393,97.0311 943.5,99.5C 941.599,99.5668 939.766,99.2335 938,98.5C 936.282,97.9689 936.115,97.3023 937.5,96.5 Z"/></g>
<g><path style="opacity:1" fill="#0e043a" d="M 943.5,99.5 C 948.429,100.967 953.096,102.967 957.5,105.5C 957.265,106.097 956.765,106.43 956,106.5C 952.324,104.578 948.491,103.078 944.5,102C 943.748,101.329 943.414,100.496 943.5,99.5 Z"/></g>
<g><path style="opacity:1" fill="#0d0a2d" d="M 286.5,95.5 C 289.017,98.0258 290.684,101.192 291.5,105C 291.43,105.765 291.097,106.265 290.5,106.5C 289.445,102.725 288.112,99.0584 286.5,95.5 Z"/></g>
<g><path style="opacity:1" fill="#10022c" d="M 959.5,106.5 C 962.352,108.325 965.018,110.325 967.5,112.5C 967.565,112.938 967.399,113.272 967,113.5C 964.034,111.703 961.201,109.703 958.5,107.5C 958.624,106.893 958.957,106.56 959.5,106.5 Z"/></g>
<g><path style="opacity:1" fill="#0e022b" d="M 969.5,113.5 C 976.12,116.296 981.786,120.296 986.5,125.5C 983.459,125.065 981.126,123.565 979.5,121C 975.875,118.939 972.208,116.772 968.5,114.5C 968.624,113.893 968.957,113.56 969.5,113.5 Z"/></g>
<g><path style="opacity:1" fill="#0f052b" d="M 986.5,125.5 C 992.226,126.9 996.893,129.9 1000.5,134.5C 999.103,134.795 997.603,135.129 996,135.5C 995.737,131.229 993.737,129.229 990,129.5C 988.612,128.264 987.446,126.931 986.5,125.5 Z"/></g>
<g><path style="opacity:1" fill="#0d022b" d="M 70.5,122.5 C 73.1715,127.453 75.5048,132.787 77.5,138.5C 77.3764,139.107 77.0431,139.44 76.5,139.5C 73.7093,134.129 71.7093,128.462 70.5,122.5 Z"/></g>
<g><path style="opacity:1" fill="#0f0331" d="M 1002.5,135.5 C 1006.61,137.219 1009.95,139.886 1012.5,143.5C 1011.88,143.611 1011.38,143.944 1011,144.5C 1008.44,140.982 1005.28,138.149 1001.5,136C 1001.73,135.601 1002.06,135.435 1002.5,135.5 Z"/></g>
<g><path style="opacity:1" fill="#10053d" d="M 77.5,141.5 C 79.4414,143.316 80.1081,145.316 79.5,147.5C 78.2702,145.703 77.6036,143.703 77.5,141.5 Z"/></g>
<g><path style="opacity:1" fill="#0e0128" d="M 1012.5,143.5 C 1018.42,147.083 1023.75,151.416 1028.5,156.5C 1028.57,156.938 1028.4,157.272 1028,157.5C 1026.83,156.107 1025.33,155.273 1023.5,155C 1019.37,152.186 1015.71,148.353 1012.5,143.5 Z"/></g>
<g><path style="opacity:1" fill="#0c0120" d="M 1030.5,157.5 C 1035.49,161.155 1040.15,165.155 1044.5,169.5C 1040.88,171.105 1038.71,169.772 1038,165.5C 1034.84,164.191 1032,161.858 1029.5,158.5C 1029.62,157.893 1029.96,157.56 1030.5,157.5 Z"/></g>
<g><path style="opacity:1" fill="#10022a" d="M 580.5,186.5 C 573.512,187.878 566.512,187.711 559.5,186C 553.704,183.713 550.37,179.547 549.5,173.5C 550.189,172.226 551.023,172.226 552,173.5C 551.454,178.359 553.62,181.859 558.5,184C 565.951,185.017 573.285,185.85 580.5,186.5 Z"/></g>
<g><path style="opacity:1" fill="#0d0536" d="M 90.5,176.5 C 92.4414,178.316 93.1081,180.316 92.5,182.5C 91.2702,180.703 90.6036,178.703 90.5,176.5 Z"/></g>
<g><path style="opacity:1" fill="#0f042e" d="M 1058.5,183.5 C 1060.85,185.86 1062.85,188.527 1064.5,191.5C 1063.88,191.611 1063.38,191.944 1063,192.5C 1061.36,189.696 1059.53,187.029 1057.5,184.5C 1057.62,183.893 1057.96,183.56 1058.5,183.5 Z"/></g>
<g><path style="opacity:1" fill="#0c0421" d="M 1074.5,203.5 C 1079.63,206.63 1083.3,210.963 1085.5,216.5C 1084.07,215.167 1082.73,213.667 1081.5,212C 1080.55,211.517 1079.55,211.351 1078.5,211.5C 1078.33,208.324 1076.66,206.324 1073.5,205.5C 1073.86,204.817 1074.2,204.15 1074.5,203.5 Z"/></g>
<g><path style="opacity:1" fill="#0e0326" d="M 875.5,211.5 C 877.017,210.265 878.684,210.265 880.5,211.5C 881.776,212.614 881.776,213.614 880.5,214.5C 878.668,213.752 877.001,212.752 875.5,211.5 Z"/></g>
<g><path style="opacity:1" fill="#110333" d="M 886.5,217.5 C 885.005,217.011 883.671,216.345 882.5,215.5C 883.568,214.566 884.901,214.232 886.5,214.5C 886.5,215.5 886.5,216.5 886.5,217.5 Z"/></g>
<g><path style="opacity:1" fill="#0b001f" d="M 888.5,219.5 C 889.601,218.402 890.934,218.235 892.5,219C 894.965,221.531 897.965,223.031 901.5,223.5C 902.127,224.417 902.461,225.417 902.5,226.5C 897.519,224.676 892.852,222.343 888.5,219.5 Z"/></g>
<g><path style="opacity:1" fill="#0e0459" d="M 1090.5,221.5 C 1091.91,221.973 1092.57,222.973 1092.5,224.5C 1091.09,224.027 1090.43,223.027 1090.5,221.5 Z"/></g>
<g><path style="opacity:1" fill="#090e59" d="M 902.5,226.5 C 904.622,226.626 905.622,227.293 905.5,228.5C 903.973,228.573 902.973,227.906 902.5,226.5 Z"/></g>
<g><path style="opacity:1" fill="#0b001d" d="M 1095.5,228.5 C 1100.09,236.69 1105.43,244.357 1111.5,251.5C 1111.44,252.043 1111.11,252.376 1110.5,252.5C 1108.34,249.506 1105.84,246.839 1103,244.5C 1102.67,244.833 1102.33,245.167 1102,245.5C 1101.5,243.527 1101.34,241.527 1101.5,239.5C 1100.18,239.67 1099.01,239.337 1098,238.5C 1098.08,234.651 1096.58,231.651 1093.5,229.5C 1093.96,228.702 1094.62,228.369 1095.5,228.5 Z"/></g>
<g><path style="opacity:1" fill="#100b2f" d="M 112.5,235.5 C 114.505,236.254 115.172,237.421 114.5,239C 116.395,241.46 117.061,243.96 116.5,246.5C 114.884,242.935 113.551,239.269 112.5,235.5 Z"/></g>
<g><path style="opacity:1" fill="#0f022c" d="M 922.5,239.5 C 925.268,241.087 927.935,242.92 930.5,245C 931.738,245.69 931.738,246.19 930.5,246.5C 927.216,244.883 924.549,242.55 922.5,239.5 Z"/></g>
<g><path style="opacity:1" fill="#0f0239" d="M 937.5,252.5 C 939.749,253.08 941.415,254.413 942.5,256.5C 940.251,255.92 938.585,254.587 937.5,252.5 Z"/></g>
<g><path style="opacity:1" fill="#0d0348" d="M 492.5,262.5 C 493.11,263.391 493.443,264.391 493.5,265.5C 491.618,264.779 491.285,263.779 492.5,262.5 Z"/></g>
<g><path style="opacity:1" fill="#0f0126" d="M 960.5,274.5 C 961.583,274.539 962.583,274.873 963.5,275.5C 964.88,277.862 966.213,280.195 967.5,282.5C 964.45,280.451 962.117,277.784 960.5,274.5 Z"/></g>
<g><path style="opacity:1" fill="#0e0229" d="M 130.5,285.5 C 132.335,286.122 133.502,287.456 134,289.5C 135.176,293.027 136.342,296.527 137.5,300C 137.272,300.399 136.938,300.565 136.5,300.5C 134.906,295.394 132.906,290.394 130.5,285.5 Z"/></g>
<g><path style="opacity:1" fill="#0d022b" d="M 979.5,297.5 C 980.376,297.369 981.043,297.702 981.5,298.5C 983.225,301.867 984.892,305.2 986.5,308.5C 983.421,305.35 981.087,301.683 979.5,297.5 Z"/></g>
<g><path style="opacity:1" fill="#0f1857" d="M 155.5,349.5 C 157.138,350.705 157.471,352.038 156.5,353.5C 155.766,352.292 155.433,350.959 155.5,349.5 Z"/></g>
<g><path style="opacity:1" fill="#0c0127" d="M 1025.5,396.5 C 1027.57,401.162 1028.91,406.162 1029.5,411.5C 1029.48,412.726 1029.15,413.726 1028.5,414.5C 1027.49,408.487 1026.49,402.487 1025.5,396.5 Z"/></g>
<g><path style="opacity:1" fill="#0c0e3e" d="M 1163.5,400.5 C 1163.67,402.861 1164.01,405.194 1164.5,407.5C 1162.47,405.345 1162.13,403.012 1163.5,400.5 Z"/></g>
<g><path style="opacity:1" fill="#0d0127" d="M 402.5,407.5 C 404.224,411.142 406.058,414.808 408,418.5C 408.5,420 409,421.5 409.5,423C 409.43,423.765 409.097,424.265 408.5,424.5C 405.718,419.157 403.718,413.491 402.5,407.5 Z"/></g>
<g><path style="opacity:1" fill="#0c0535" d="M 179.5,416.5 C 181.302,417.315 182.302,418.815 182.5,421C 182.43,421.765 182.097,422.265 181.5,422.5C 181.029,420.421 180.363,418.421 179.5,416.5 Z"/></g>
<g><path style="opacity:1" fill="#0d053b" d="M 190.5,445.5 C 192.086,447.081 193.086,449.081 193.5,451.5C 193.376,452.107 193.043,452.44 192.5,452.5C 191.434,450.299 190.767,447.965 190.5,445.5 Z"/></g>
<g><path style="opacity:1" fill="#0a0454" d="M 570.5,472.5 C 571.234,473.708 571.567,475.041 571.5,476.5C 569.862,475.295 569.529,473.962 570.5,472.5 Z"/></g>
<g><path style="opacity:1" fill="#0b011d" d="M 1164.5,514.5 C 1164,520.521 1163.33,526.521 1162.5,532.5C 1161.36,529.36 1161.19,526.027 1162,522.5C 1161.95,519.325 1162.78,516.658 1164.5,514.5 Z"/></g>
<g><path style="opacity:1" fill="#0b0121" d="M 448.5,529.5 C 449.473,531.25 450.807,532.75 452.5,534C 452.043,534.414 451.709,534.914 451.5,535.5C 453.414,538.572 454.748,541.905 455.5,545.5C 456.025,546.192 456.692,546.692 457.5,547C 456.167,548 456.167,549 457.5,550C 456.906,550.464 456.239,550.631 455.5,550.5C 453.351,543.386 451.018,536.386 448.5,529.5 Z"/></g>
<g><path style="opacity:1" fill="#0f0534" d="M 1159.5,545.5 C 1159.37,547.216 1159.04,548.883 1158.5,550.5C 1157.86,549.903 1157.53,549.07 1157.5,548C 1157.68,546.624 1158.35,545.791 1159.5,545.5 Z"/></g>
<g><path style="opacity:1" fill="#0d0338" d="M 456.5,551.5 C 457.868,553.418 458.868,555.585 459.5,558C 459.272,558.399 458.938,558.565 458.5,558.5C 457.388,556.401 456.721,554.067 456.5,551.5 Z"/></g>
<g><path style="opacity:1" fill="#0a0454" d="M 1009.5,570.5 C 1010.47,571.962 1010.14,573.295 1008.5,574.5C 1008.43,573.041 1008.77,571.708 1009.5,570.5 Z"/></g>
<g><path style="opacity:1" fill="#0e0445" d="M 1007.5,575.5 C 1008.65,577.915 1007.98,579.915 1005.5,581.5C 1006.17,579.5 1006.83,577.5 1007.5,575.5 Z"/></g>
<g><path style="opacity:1" fill="#080452" d="M 1004.5,582.5 C 1005.35,584.51 1004.68,586.177 1002.5,587.5C 1002.89,585.716 1003.56,584.05 1004.5,582.5 Z"/></g>
<g><path style="opacity:1" fill="#0e012c" d="M 1001.5,588.5 C 1001.94,588.435 1002.27,588.601 1002.5,589C 1001.52,593.469 999.183,596.969 995.5,599.5C 997.25,595.665 999.25,591.999 1001.5,588.5 Z"/></g>
<g><path style="opacity:1" fill="#050253" d="M 472.5,595.5 C 474.138,596.705 474.471,598.038 473.5,599.5C 472.766,598.292 472.433,596.959 472.5,595.5 Z"/></g>
<g><path style="opacity:1" fill="#0b0c3e" d="M 248.5,600.5 C 250.736,602.574 251.403,604.908 250.5,607.5C 249.434,605.299 248.767,602.965 248.5,600.5 Z"/></g>
<g><path style="opacity:1" fill="#0f0538" d="M 474.5,601.5 C 476.441,603.316 477.108,605.316 476.5,607.5C 475.27,605.703 474.604,603.703 474.5,601.5 Z"/></g>
<g><path style="opacity:1" fill="#0e022c" d="M 993.5,602.5 C 993.783,603.216 994.116,604.049 994.5,605C 992.624,607.323 990.624,609.49 988.5,611.5C 989.41,608.008 991.076,605.008 993.5,602.5 Z"/></g>
<g><path style="opacity:1" fill="#0a001f" d="M 251.5,608.5 C 253.789,614.09 256.456,619.757 259.5,625.5C 260.025,626.192 260.692,626.692 261.5,627C 261.327,628.909 260.993,630.743 260.5,632.5C 256.947,624.723 253.947,616.723 251.5,608.5 Z"/></g>
<g><path style="opacity:1" fill="#0d0121" d="M 987.5,612.5 C 987.938,612.435 988.272,612.601 988.5,613C 987.91,614.509 987.244,616.009 986.5,617.5C 984.02,618.415 983.353,619.915 984.5,622C 983.069,623.562 981.569,625.062 980,626.5C 979.617,625.944 979.117,625.611 978.5,625.5C 981.256,620.984 984.256,616.651 987.5,612.5 Z"/></g>
<g><path style="opacity:1" fill="#0f042e" d="M 978.5,625.5 C 977.684,629.14 975.851,632.14 973,634.5C 972.51,635.793 972.343,637.127 972.5,638.5C 971.209,638.737 970.209,638.404 969.5,637.5C 972.025,633.104 975.025,629.104 978.5,625.5 Z"/></g>
<g><path style="opacity:1" fill="#0f0323" d="M 968.5,638.5 C 969.407,641.21 968.407,643.377 965.5,645C 965.833,645.333 966.167,645.667 966.5,646C 965.464,647.617 964.297,647.784 963,646.5C 961.296,648.373 959.463,650.04 957.5,651.5C 960.798,646.868 964.464,642.534 968.5,638.5 Z"/></g>
<g><path style="opacity:1" fill="#0e0130" d="M 952.5,656.5 C 947.068,663.313 941.068,668.646 934.5,672.5C 940.197,666.802 946.197,661.468 952.5,656.5 Z"/></g>
<g><path style="opacity:1" fill="#0f033a" d="M 933.5,673.5 C 927.679,680.13 921.346,685.464 914.5,689.5C 920.242,683.422 926.575,678.088 933.5,673.5 Z"/></g>
<g><path style="opacity:1" fill="#0e032a" d="M 912.5,690.5 C 912.938,690.435 913.272,690.601 913.5,691C 910.432,693.282 907.932,696.116 906,699.5C 904.092,696.668 903.259,697.001 903.5,700.5C 899.096,700.954 895.263,702.621 892,705.5C 890.93,705.472 890.097,705.139 889.5,704.5C 897.658,700.59 905.325,695.923 912.5,690.5 Z"/></g>
<g><path style="opacity:1" fill="#10042f" d="M 284.5,696.5 C 286.573,699.043 287.906,702.043 288.5,705.5C 288.376,706.107 288.043,706.44 287.5,706.5C 285.924,703.345 284.924,700.012 284.5,696.5 Z"/></g>
<g><path style="opacity:1" fill="#0e0535" d="M 510.5,698.5 C 511.497,698.47 512.164,698.97 512.5,700C 513.068,701.872 513.735,703.705 514.5,705.5C 514.376,706.107 514.043,706.44 513.5,706.5C 512.501,703.838 511.501,701.172 510.5,698.5 Z"/></g>
<g><path style="opacity:1" fill="#0f043d" d="M 887.5,706.5 C 884.913,708.609 881.58,710.609 877.5,712.5C 876.893,712.376 876.56,712.043 876.5,711.5C 879.515,708.494 883.182,706.827 887.5,706.5 Z"/></g>
<g><path style="opacity:1" fill="#0b011e" d="M 658.5,709.5 C 659.965,714.563 661.632,719.563 663.5,724.5C 662.719,726.628 661.719,726.795 660.5,725C 660.732,720.52 659.398,716.353 656.5,712.5C 656.942,711.261 657.609,710.261 658.5,709.5 Z"/></g>
<g><path style="opacity:1" fill="#0c0020" d="M 288.5,707.5 C 291.523,713.536 294.19,719.869 296.5,726.5C 296.376,727.107 296.043,727.44 295.5,727.5C 292.765,720.96 290.431,714.293 288.5,707.5 Z"/></g>
<g><path style="opacity:1" fill="#0e033b" d="M 873.5,712.5 C 874.239,712.369 874.906,712.536 875.5,713C 872.929,713.901 870.596,715.234 868.5,717C 861.164,719.834 853.831,722.667 846.5,725.5C 846.5,725.167 846.5,724.833 846.5,724.5C 848.138,723.343 849.804,722.176 851.5,721C 858.872,718.228 866.205,715.395 873.5,712.5 Z"/></g>
<g><path style="opacity:1" fill="#0e0337" d="M 846.5,724.5 C 846.5,724.833 846.5,725.167 846.5,725.5C 843.359,726.321 840.025,726.821 836.5,727C 835.449,728.385 834.116,729.385 832.5,730C 827.316,730.816 822.316,730.65 817.5,729.5C 824.799,730.511 831.466,729.011 837.5,725C 840.482,724.502 843.482,724.335 846.5,724.5 Z"/></g>
<g><path style="opacity:1" fill="#0f0848" d="M 811.5,733.5 C 805.584,734.35 798.918,734.85 791.5,735C 788.007,736.749 784.34,737.915 780.5,738.5C 780.5,738.167 780.5,737.833 780.5,737.5C 782.609,736.609 784.609,735.442 786.5,734C 794.827,733.5 803.16,733.334 811.5,733.5 Z"/></g>
<g><path style="opacity:1" fill="#0b002b" d="M 673.5,737.5 C 709.167,737.5 744.833,737.5 780.5,737.5C 780.5,737.833 780.5,738.167 780.5,738.5C 744.764,739.17 708.931,739.836 673,740.5C 672.26,739.251 672.427,738.251 673.5,737.5 Z"/></g>
<g><path style="opacity:1" fill="#0f0326" d="M 1049.5,746.5 C 1048.17,748.5 1046.5,750.167 1044.5,751.5C 1043.09,749.402 1043.75,748.402 1046.5,748.5C 1046.5,747.5 1046.5,746.5 1046.5,745.5C 1047.79,745.263 1048.79,745.596 1049.5,746.5 Z"/></g>
<g><path style="opacity:1" fill="#0d0225" d="M 541.5,780.5 C 536.891,768.947 532.558,757.28 528.5,745.5C 531.469,751.409 534.303,758.076 537,765.5C 539.21,766.632 539.71,768.132 538.5,770C 539.971,773.109 541.305,776.276 542.5,779.5C 542.376,780.107 542.043,780.44 541.5,780.5 Z"/></g>
<g><path style="opacity:1" fill="#0c021d" d="M 1007.5,783.5 C 1004.4,786.888 1000.74,789.555 996.5,791.5C 995.596,790.791 995.263,789.791 995.5,788.5C 999.975,788.08 1003.14,785.746 1005,781.5C 1005.99,782.066 1006.83,782.733 1007.5,783.5 Z"/></g>
<g><path style="opacity:1" fill="#0d0123" d="M 315.5,779.5 C 316.586,779.62 317.253,780.287 317.5,781.5C 318.198,782.863 318.198,784.029 317.5,785C 320.244,788.236 321.244,791.736 320.5,795.5C 318.258,790.348 316.591,785.015 315.5,779.5 Z"/></g>
<g><path style="opacity:1" fill="#0a0121" d="M 331.5,824.5 C 328.966,818.232 326.633,811.898 324.5,805.5C 324.897,804.475 325.563,804.308 326.5,805C 327.685,810.993 329.685,816.993 332.5,823C 332.43,823.765 332.097,824.265 331.5,824.5 Z"/></g>
<g><path style="opacity:1" fill="#100835" d="M 962.5,813.5 C 956.266,817.116 949.933,820.449 943.5,823.5C 943.062,823.565 942.728,823.399 942.5,823C 946.504,820.228 950.837,817.895 955.5,816C 954.549,815.282 954.383,814.449 955,813.5C 957.544,813.289 960.044,813.289 962.5,813.5 Z"/></g>
<g><path style="opacity:1" fill="#11042f" d="M 927.5,831.5 C 923.016,833.243 918.683,835.243 914.5,837.5C 914.539,836.417 914.873,835.417 915.5,834.5C 917.5,833.5 919.5,832.5 921.5,831.5C 923.673,830.418 925.673,830.418 927.5,831.5 Z"/></g>
<g><path style="opacity:1" fill="#0b0446" d="M 910.5,839.5 C 908.5,839.833 906.5,840.167 904.5,840.5C 903.761,840.631 903.094,840.464 902.5,840C 905.227,838.364 907.893,838.198 910.5,839.5 Z"/></g>
<g><path style="opacity:1" fill="#0e053a" d="M 870.5,852.5 C 866.803,853.008 863.136,853.674 859.5,854.5C 858.957,854.44 858.624,854.107 858.5,853.5C 862.544,851.626 866.544,851.293 870.5,852.5 Z"/></g>
<g><path style="opacity:1" fill="#0f052b" d="M 840.5,857.5 C 838.299,858.566 835.965,859.233 833.5,859.5C 833.5,858.5 833.5,857.5 833.5,856.5C 836.059,856.198 838.393,856.532 840.5,857.5 Z"/></g>
</svg>
